<?xml version="1.0" encoding="UTF-8"?>
<svg xmlns="http://www.w3.org/2000/svg" viewBox="0 0 3840 2160">
  <defs>
    <style>
      .cls-1 {
        fill: #fff;
      }

      .cls-2 {
        fill: #0f172a;
      }
    </style>
  </defs>
  <g id="sky">
    <g>
      <rect class="cls-2" x=".5" y=".5" width="3839" height="2159"/>
      <path d="M3839,1V2159H1V1H3839m1-1H0V2160H3840V0h0Z"/>
    </g>
  </g>
  <g id="stars">
    <path class="cls-1" d="M1765.23,191.19c6.43,0,6.45-10,0-10s-6.45,10,0,10h0Z"/>
    <path class="cls-1" d="M1785.6,250.96c6.43,0,6.45-10,0-10s-6.45,10,0,10h0Z"/>
    <path class="cls-1" d="M1853.53,294.43c6.43,0,6.45-10,0-10s-6.45,10,0,10h0Z"/>
    <path class="cls-1" d="M1940.47,321.6c6.43,0,6.45-10,0-10s-6.45,10,0,10h0Z"/>
    <path class="cls-1" d="M2038.28,305.3c6.43,0,6.45-10,0-10s-6.45,10,0,10h0Z"/>
    <path class="cls-1" d="M1949.98,388.17c6.43,0,6.45-10,0-10s-6.45,10,0,10h0Z"/>
    <path class="cls-1" d="M2072.25,389.53c6.43,0,6.45-10,0-10s-6.45,10,0,10h0Z"/>
    <path class="cls-1" d="M2259.72,1094.58c6.43,0,6.45-10,0-10s-6.45,10,0,10h0Z"/>
    <path class="cls-1" d="M2318.13,1162.51c6.43,0,6.45-10,0-10s-6.45,10,0,10h0Z"/>
    <path class="cls-1" d="M1435.11,1007.64c6.43,0,6.45-10,0-10s-6.45,10,0,10h0Z"/>
    <path class="cls-1" d="M1576.4,983.19c6.43,0,6.45-10,0-10s-6.45,10,0,10h0Z"/>
    <path class="cls-1" d="M1539.72,1076.92c6.43,0,6.45-10,0-10s-6.45,10,0,10h0Z"/>
    <path class="cls-1" d="M1367.19,1121.75c6.43,0,6.45-10,0-10s-6.45,10,0,10h0Z"/>
    <path class="cls-1" d="M1435.11,1109.53c6.43,0,6.45-10,0-10s-6.45,10,0,10h0Z"/>
    <path class="cls-1" d="M1595.42,1159.79c6.43,0,6.45-10,0-10s-6.45,10,0,10h0Z"/>
    <path class="cls-1" d="M1660.62,583.79c6.43,0,6.45-10,0-10s-6.45,10,0,10h0Z"/>
    <path class="cls-1" d="M1691.87,644.92c6.43,0,6.45-10,0-10s-6.45,10,0,10h0Z"/>
    <path class="cls-1" d="M1799.19,613.68c6.43,0,6.45-10,0-10s-6.45,10,0,10h0Z"/>
    <path class="cls-1" d="M1838.58,543.04c6.43,0,6.45-10,0-10s-6.45,10,0,10h0Z"/>
    <path class="cls-1" d="M1614.43,699.26c6.43,0,6.45-10,0-10s-6.45,10,0,10h0Z"/>
    <path class="cls-1" d="M1520.7,699.26c6.43,0,6.45-10,0-10s-6.45,10,0,10h0Z"/>
    <path class="cls-1" d="M1756.54,710.03l1.36-1.36c.49-.45,.83-.99,1.03-1.61,.31-.6,.46-1.24,.43-1.93,.03-.69-.12-1.33-.43-1.93-.2-.62-.55-1.16-1.03-1.61-.95-.87-2.2-1.52-3.54-1.46s-2.58,.51-3.54,1.46l-1.36,1.36c-.49,.45-.83,.99-1.03,1.61-.31,.6-.46,1.24-.43,1.93-.03,.69,.12,1.33,.43,1.93,.2,.62,.55,1.16,1.03,1.61,.95,.87,2.2,1.52,3.54,1.46s2.58-.51,3.54-1.46h0Z"/>
    <path class="cls-1" d="M1763.87,742.74c6.43,0,6.45-10,0-10s-6.45,10,0,10h0Z"/>
    <path class="cls-1" d="M1826.36,786.21c6.43,0,6.45-10,0-10s-6.45,10,0,10h0Z"/>
    <path class="cls-1" d="M2979.72,874.51c6.43,0,6.45-10,0-10s-6.45,10,0,10h0Z"/>
    <path class="cls-1" d="M2804.47,892.17c6.43,0,6.45-10,0-10s-6.45,10,0,10h0Z"/>
    <path class="cls-1" d="M2861.53,784.85c6.43,0,6.45-10,0-10s-6.45,10,0,10h0Z"/>
    <path class="cls-1" d="M2608.85,740.02c6.43,0,6.45-10,0-10s-6.45,10,0,10h0Z"/>
    <path class="cls-1" d="M2675.42,692.47c6.43,0,6.45-10,0-10s-6.45,10,0,10h0Z"/>
    <path class="cls-1" d="M2644.17,856.85c6.43,0,6.45-10,0-10s-6.45,10,0,10h0Z"/>
    <path class="cls-1" d="M3361.45,289c6.43,0,6.45-10,0-10s-6.45,10,0,10h0Z"/>
    <path class="cls-1" d="M3259.57,378.66c6.43,0,6.45-10,0-10s-6.45,10,0,10h0Z"/>
    <path class="cls-1" d="M3362.81,477.83c6.43,0,6.45-10,0-10s-6.45,10,0,10h0Z"/>
    <path class="cls-1" d="M2899.57,461.53c6.43,0,6.45-10,0-10s-6.45,10,0,10h0Z"/>
    <path class="cls-1" d="M2894.13,365.08c6.43,0,6.45-10,0-10s-6.45,10,0,10h0Z"/>
    <path class="cls-1" d="M3241.91,1151.64c6.43,0,6.45-10,0-10s-6.45,10,0,10h0Z"/>
    <path class="cls-1" d="M3173.98,1223.64c6.43,0,6.45-10,0-10s-6.45,10,0,10h0Z"/>
    <path class="cls-1" d="M3254.13,1210.06c6.43,0,6.45-10,0-10s-6.45,10,0,10h0Z"/>
    <path class="cls-1" d="M3331.57,1250.81c6.43,0,6.45-10,0-10s-6.45,10,0,10h0Z"/>
    <path class="cls-1" d="M3346.51,1339.11c6.43,0,6.45-10,0-10s-6.45,10,0,10h0Z"/>
    <path class="cls-1" d="M3319.34,1435.57c6.43,0,6.45-10,0-10s-6.45,10,0,10h0Z"/>
    <path class="cls-1" d="M1826.36,1396.17c6.43,0,6.45-10,0-10s-6.45,10,0,10h0Z"/>
    <path class="cls-1" d="M1825,1439.64c6.43,0,6.45-10,0-10s-6.45,10,0,10h0Z"/>
    <path class="cls-1" d="M1774.74,1580.92c6.43,0,6.45-10,0-10s-6.45,10,0,10h0Z"/>
    <path class="cls-1" d="M1753,1629.83c6.43,0,6.45-10,0-10s-6.45,10,0,10h0Z"/>
    <path class="cls-1" d="M1623.94,1585c6.43,0,6.45-10,0-10s-6.45,10,0,10h0Z"/>
    <path class="cls-1" d="M1541.08,1542.89c6.43,0,6.45-10,0-10s-6.45,10,0,10h0Z"/>
    <path class="cls-1" d="M1454.13,1405.68c6.43,0,6.45-10,0-10s-6.45,10,0,10h0Z"/>
    <path class="cls-1" d="M1490.81,1416.55c6.43,0,6.45-10,0-10s-6.45,10,0,10h0Z"/>
    <path class="cls-1" d="M1591.34,1434.21c6.43,0,6.45-10,0-10s-6.45,10,0,10h0Z"/>
    <path class="cls-1" d="M1690.51,1451.87c6.43,0,6.45-10,0-10s-6.45,10,0,10h0Z"/>
    <path class="cls-1" d="M212.47,704.7c6.43,0,6.45-10,0-10s-6.45,10,0,10h0Z"/>
    <path class="cls-1" d="M265.45,749.53c6.43,0,6.45-10,0-10s-6.45,10,0,10h0Z"/>
    <path class="cls-1" d="M440.7,854.13c6.43,0,6.45-10,0-10s-6.45,10,0,10h0Z"/>
    <path class="cls-1" d="M549.38,908.47c6.43,0,6.45-10,0-10s-6.45,10,0,10h0Z"/>
    <path class="cls-1" d="M652.62,915.26c6.43,0,6.45-10,0-10s-6.45,10,0,10h0Z"/>
    <path class="cls-1" d="M696.09,991.34c6.43,0,6.45-10,0-10s-6.45,10,0,10h0Z"/>
    <path class="cls-1" d="M630.89,1026.66c6.43,0,6.45-10,0-10s-6.45,10,0,10h0Z"/>
    <path class="cls-1" d="M565.68,1010.36c6.43,0,6.45-10,0-10s-6.45,10,0,10h0Z"/>
    <path class="cls-1" d="M764.02,276.77c6.43,0,6.45-10,0-10s-6.45,10,0,10h0Z"/>
    <path class="cls-1" d="M755.87,438.43c6.43,0,6.45-10,0-10s-6.45,10,0,10h0Z"/>
    <path class="cls-1" d="M833.3,305.3c6.43,0,6.45-10,0-10s-6.45,10,0,10h0Z"/>
    <path class="cls-1" d="M323.87,178.96c6.43,0,6.45-10,0-10s-6.45,10,0,10h0Z"/>
    <path class="cls-1" d="M337.45,314.81c6.43,0,6.45-10,0-10s-6.45,10,0,10h0Z"/>
    <path class="cls-1" d="M327.94,422.13c6.43,0,6.45-10,0-10s-6.45,10,0,10h0Z"/>
    <path class="cls-1" d="M299.42,438.43c6.43,0,6.45-10,0-10s-6.45,10,0,10h0Z"/>
    <path class="cls-1" d="M409.45,1974.89c6.43,0,6.45-10,0-10s-6.45,10,0,10h0Z"/>
    <path class="cls-1" d="M443.42,1894.74c6.43,0,6.45-10,0-10s-6.45,10,0,10h0Z"/>
    <path class="cls-1" d="M398.58,1714.06c6.43,0,6.45-10,0-10s-6.45,10,0,10h0Z"/>
    <path class="cls-1" d="M246.43,1661.08c6.43,0,6.45-10,0-10s-6.45,10,0,10h0Z"/>
    <path class="cls-1" d="M514.06,1435.57c6.43,0,6.45-10,0-10s-6.45,10,0,10h0Z"/>
    <path class="cls-1" d="M580.62,1449.15c6.43,0,6.45-10,0-10s-6.45,10,0,10h0Z"/>
    <path class="cls-1" d="M681.15,1537.45c6.43,0,6.45-10,0-10s-6.45,10,0,10h0Z"/>
    <path class="cls-1" d="M799.34,1480.4c6.43,0,6.45-10,0-10s-6.45,10,0,10h0Z"/>
    <path class="cls-1" d="M1052.02,1568.7c6.43,0,6.45-10,0-10s-6.45,10,0,10h0Z"/>
    <path class="cls-1" d="M1246.28,1536.09c6.43,0,6.45-10,0-10s-6.45,10,0,10h0Z"/>
    <path class="cls-1" d="M2204.02,1424.7c6.43,0,6.45-10,0-10s-6.45,10,0,10h0Z"/>
    <path class="cls-1" d="M2265.15,1492.62c6.43,0,6.45-10,0-10s-6.45,10,0,10h0Z"/>
    <path class="cls-1" d="M2292.32,1527.94c6.43,0,6.45-10,0-10s-6.45,10,0,10h0Z"/>
    <path class="cls-1" d="M2388.77,1465.45c6.43,0,6.45-10,0-10s-6.45,10,0,10h0Z"/>
    <path class="cls-1" d="M2367.04,1659.72c6.43,0,6.45-10,0-10s-6.45,10,0,10h0Z"/>
    <path class="cls-1" d="M2288.25,1708.62c6.43,0,6.45-10,0-10s-6.45,10,0,10h0Z"/>
    <path class="cls-1" d="M2330.36,1757.53c6.43,0,6.45-10,0-10s-6.45,10,0,10h0Z"/>
    <path class="cls-1" d="M2451.26,1646.13c6.43,0,6.45-10,0-10s-6.45,10,0,10h0Z"/>
    <path class="cls-1" d="M2626.51,1608.09c6.43,0,6.45-10,0-10s-6.45,10,0,10h0Z"/>
    <path class="cls-1" d="M2729.75,1468.17c6.43,0,6.45-10,0-10s-6.45,10,0,10h0Z"/>
    <path class="cls-1" d="M2695.79,1714.06c6.43,0,6.45-10,0-10s-6.45,10,0,10h0Z"/>
    <path class="cls-1" d="M2811.26,1733.08c6.43,0,6.45-10,0-10s-6.45,10,0,10h0Z"/>
    <path class="cls-1" d="M2676.77,1844.47c6.43,0,6.45-10,0-10s-6.45,10,0,10h0Z"/>
    <path class="cls-1" d="M2732.47,1902.89c6.43,0,6.45-10,0-10s-6.45,10,0,10h0Z"/>
    <path class="cls-1" d="M3129.15,1921.91c6.43,0,6.45-10,0-10s-6.45,10,0,10h0Z"/>
    <path class="cls-1" d="M3183.49,1855.34c6.43,0,6.45-10,0-10s-6.45,10,0,10h0Z"/>
    <path class="cls-1" d="M3347.87,1833.6c6.43,0,6.45-10,0-10s-6.45,10,0,10h0Z"/>
    <path class="cls-1" d="M3451.11,1703.19c6.43,0,6.45-10,0-10s-6.45,10,0,10h0Z"/>
    <path class="cls-1" d="M3506.81,1787.42c6.43,0,6.45-10,0-10s-6.45,10,0,10h0Z"/>
    <path class="cls-1" d="M1196.02,408.55c6.43,0,6.45-10,0-10s-6.45,10,0,10h0Z"/>
    <path class="cls-1" d="M1085.98,468.32c6.43,0,6.45-10,0-10s-6.45,10,0,10h0Z"/>
    <path class="cls-1" d="M1033,666.66c6.43,0,6.45-10,0-10s-6.45,10,0,10h0Z"/>
    <path class="cls-1" d="M1062.89,680.25c6.43,0,6.45-10,0-10s-6.45,10,0,10h0Z"/>
    <path class="cls-1" d="M1206.89,635.42c6.43,0,6.45-10,0-10s-6.45,10,0,10h0Z"/>
    <path class="cls-1" d="M1231.34,496.85c6.43,0,6.45-10,0-10s-6.45,10,0,10h0Z"/>
    <path class="cls-1" d="M1075.11,1015.79c6.43,0,6.45-10,0-10s-6.45,10,0,10h0Z"/>
    <path class="cls-1" d="M1011.26,1037.53c6.43,0,6.45-10,0-10s-6.45,10,0,10h0Z"/>
    <path class="cls-1" d="M1052.02,1098.66c6.43,0,6.45-10,0-10s-6.45,10,0,10h0Z"/>
    <path class="cls-1" d="M989.53,1140.77c6.43,0,6.45-10,0-10s-6.45,10,0,10h0Z"/>
    <path class="cls-1" d="M1037.08,1178.81c6.43,0,6.45-10,0-10s-6.45,10,0,10h0Z"/>
    <path class="cls-1" d="M973.23,1246.74c6.43,0,6.45-10,0-10s-6.45,10,0,10h0Z"/>
    <path class="cls-1" d="M1007.19,1328.25c6.43,0,6.45-10,0-10s-6.45,10,0,10h0Z"/>
    <path class="cls-1" d="M978.66,1352.7c6.43,0,6.45-10,0-10s-6.45,10,0,10h0Z"/>
    <path class="cls-1" d="M2460.77,562.06c6.43,0,6.45-10,0-10s-6.45,10,0,10h0Z"/>
    <path class="cls-1" d="M2414.58,490.06c6.43,0,6.45-10,0-10s-6.45,10,0,10h0Z"/>
    <path class="cls-1" d="M2443.11,419.42c6.43,0,6.45-10,0-10s-6.45,10,0,10h0Z"/>
    <path class="cls-1" d="M2439.04,329.75c6.43,0,6.45-10,0-10s-6.45,10,0,10h0Z"/>
    <path class="cls-1" d="M2375.19,155.87c6.43,0,6.45-10,0-10s-6.45,10,0,10h0Z"/>
    <path class="cls-1" d="M2474.36,159.94c6.43,0,6.45-10,0-10s-6.45,10,0,10h0Z"/>
    <path class="cls-1" d="M2506.96,283.57c6.43,0,6.45-10,0-10s-6.45,10,0,10h0Z"/>
    <path class="cls-1" d="M2295.04,60.77c6.43,0,6.45-10,0-10s-6.45,10,0,10h0Z"/>
    <path class="cls-1" d="M2619.72,287.64c6.43,0,6.45-10,0-10s-6.45,10,0,10h0Z"/>
    <path class="cls-1" d="M2708.02,184.4c6.43,0,6.45-10,0-10s-6.45,10,0,10h0Z"/>
    <path class="cls-1" d="M2861.53,196.62c6.43,0,6.45-10,0-10s-6.45,10,0,10h0Z"/>
    <path class="cls-1" d="M2740.62,45.83c6.43,0,6.45-10,0-10s-6.45,10,0,10h0Z"/>
    <path class="cls-1" d="M2379.26,47.19c6.43,0,6.45-10,0-10s-6.45,10,0,10h0Z"/>
    <path class="cls-1" d="M3349.03,911.86l2.72-1.36c1.08-.54,1.99-1.86,2.3-2.99,.33-1.2,.18-2.79-.5-3.85s-1.71-2.01-2.99-2.3c-1.36-.31-2.6-.12-3.85,.5l-2.72,1.36c-1.08,.54-1.99,1.86-2.3,2.99-.33,1.2-.18,2.79,.5,3.85s1.71,2.01,2.99,2.3c1.36,.31,2.6,.12,3.85-.5h0Z"/>
    <path class="cls-1" d="M3354.66,805.23c6.43,0,6.45-10,0-10s-6.45,10,0,10h0Z"/>
    <path class="cls-1" d="M3559.79,840.55c6.43,0,6.45-10,0-10s-6.45,10,0,10h0Z"/>
    <path class="cls-1" d="M999.04,93.95c1.93,0,1.93-3,0-3s-1.93,3,0,3h0Z"/>
    <path class="cls-1" d="M1296.55,110.25c1.93,0,1.93-3,0-3s-1.93,3,0,3h0Z"/>
    <path class="cls-1" d="M1147.11,237.95c1.93,0,1.93-3,0-3s-1.93,3,0,3h0Z"/>
    <path class="cls-1" d="M1448.7,285.5c1.93,0,1.93-3,0-3s-1.93,3,0,3h0Z"/>
    <path class="cls-1" d="M755.87,655.01c1.93,0,1.93-3,0-3s-1.93,3,0,3h0Z"/>
    <path class="cls-1" d="M488.25,543.61c1.93,0,1.93-3,0-3s-1.93,3,0,3h0Z"/>
    <path class="cls-1" d="M543.94,258.33c1.93,0,1.93-3,0-3s-1.93,3,0,3h0Z"/>
    <path class="cls-1" d="M110.58,93.95c1.93,0,1.93-3,0-3s-1.93,3,0,3h0Z"/>
    <path class="cls-1" d="M178.51,296.37c1.93,0,1.93-3,0-3s-1.93,3,0,3h0Z"/>
    <path class="cls-1" d="M105.15,504.22c1.93,0,1.93-3,0-3s-1.93,3,0,3h0Z"/>
    <path class="cls-1" d="M124.17,841.12c1.93,0,1.93-3,0-3s-1.93,3,0,3h0Z"/>
    <path class="cls-1" d="M323.87,1009.58c1.93,0,1.93-3,0-3s-1.93,3,0,3h0Z"/>
    <path class="cls-1" d="M135.04,1066.63c1.93,0,1.93-3,0-3s-1.93,3,0,3h0Z"/>
    <path class="cls-1" d="M546.66,1179.39c1.93,0,1.93-3,0-3s-1.93,3,0,3h0Z"/>
    <path class="cls-1" d="M337.45,1197.05c1.93,0,1.93-3,0-3s-1.93,3,0,3h0Z"/>
    <path class="cls-1" d="M217.91,1355.99c1.93,0,1.93-3,0-3s-1.93,3,0,3h0Z"/>
    <path class="cls-1" d="M376.85,1427.99c1.93,0,1.93-3,0-3s-1.93,3,0,3h0Z"/>
    <path class="cls-1" d="M132.32,1815.16c1.93,0,1.93-3,0-3s-1.93,3,0,3h0Z"/>
    <path class="cls-1" d="M221.98,1933.35c1.93,0,1.93-3,0-3s-1.93,3,0,3h0Z"/>
    <path class="cls-1" d="M704.25,1739.08c1.93,0,1.93-3,0-3s-1.93,3,0,3h0Z"/>
    <path class="cls-1" d="M643.11,1931.99c1.93,0,1.93-3,0-3s-1.93,3,0,3h0Z"/>
    <path class="cls-1" d="M884.92,1903.46c1.93,0,1.93-3,0-3s-1.93,3,0,3h0Z"/>
    <path class="cls-1" d="M1062.89,1743.16c1.93,0,1.93-3,0-3s-1.93,3,0,3h0Z"/>
    <path class="cls-1" d="M1126.74,2031.16c1.93,0,1.93-3,0-3s-1.93,3,0,3h0Z"/>
    <path class="cls-1" d="M1282.96,1888.52c1.93,0,1.93-3,0-3s-1.93,3,0,3h0Z"/>
    <path class="cls-1" d="M1455.49,1733.65c1.93,0,1.93-3,0-3s-1.93,3,0,3h0Z"/>
    <path class="cls-1" d="M1507.11,1919.76c1.93,0,1.93-3,0-3s-1.93,3,0,3h0Z"/>
    <path class="cls-1" d="M1545.15,1983.61c1.93,0,1.93-3,0-3s-1.93,3,0,3h0Z"/>
    <path class="cls-1" d="M1713.6,1883.08c1.93,0,1.93-3,0-3s-1.93,3,0,3h0Z"/>
    <path class="cls-1" d="M1974.43,1703.76c1.93,0,1.93-3,0-3s-1.93,3,0,3h0Z"/>
    <path class="cls-1" d="M2012.47,1850.48c1.93,0,1.93-3,0-3s-1.93,3,0,3h0Z"/>
    <path class="cls-1" d="M2258.36,1960.52h1.36c.21,0,.4-.04,.58-.13,.19-.06,.35-.16,.48-.31,.15-.14,.25-.3,.31-.48,.09-.18,.14-.37,.13-.58l-.05-.4c-.07-.25-.2-.47-.39-.66l-.3-.23c-.23-.14-.49-.2-.76-.2h-1.36c-.21,0-.4,.04-.58,.13-.19,.06-.35,.16-.48,.31-.15,.14-.25,.3-.31,.48-.09,.18-.14,.37-.13,.58l.05,.4c.07,.25,.2,.47,.39,.66l.3,.23c.23,.14,.49,.2,.76,.2h0Z"/>
    <path class="cls-1" d="M1948.62,2050.18c1.93,0,1.93-3,0-3s-1.93,3,0,3h0Z"/>
    <path class="cls-1" d="M2038.28,1508.14c1.93,0,1.93-3,0-3s-1.93,3,0,3h0Z"/>
    <path class="cls-1" d="M1918.74,1266.33c1.93,0,1.93-3,0-3s-1.93,3,0,3h0Z"/>
    <path class="cls-1" d="M1705.45,1250.03c1.93,0,1.93-3,0-3s-1.93,3,0,3h0Z"/>
    <path class="cls-1" d="M1750.28,1013.65c1.93,0,1.93-3,0-3s-1.93,3,0,3h0Z"/>
    <path class="cls-1" d="M2036.92,947.08c1.93,0,1.93-3,0-3s-1.93,3,0,3h0Z"/>
    <path class="cls-1" d="M1973.19,1097.88c1.93,0,1.93-3,0-3s-1.93,3,0,3h0Z"/>
    <path class="cls-1" d="M2111.64,1129.12c1.93,0,1.93-3,0-3s-1.93,3,0,3h0Z"/>
    <path class="cls-1" d="M2077.68,952.52c1.93,0,1.93-3,0-3s-1.93,3,0,3h0Z"/>
    <path class="cls-1" d="M2070.89,811.24c1.93,0,1.93-3,0-3s-1.93,3,0,3h0Z"/>
    <path class="cls-1" d="M2220.32,714.78c1.93,0,1.93-3,0-3s-1.93,3,0,3h0Z"/>
    <path class="cls-1" d="M2079.04,611.54c1.93,0,1.93-3,0-3s-1.93,3,0,3h0Z"/>
    <path class="cls-1" d="M2028.77,680.82c1.93,0,1.93-3,0-3s-1.93,3,0,3h0Z"/>
    <path class="cls-1" d="M2262.43,539.54c1.93,0,1.93-3,0-3s-1.93,3,0,3h0Z"/>
    <path class="cls-1" d="M2458.06,837.05c1.93,0,1.93-3,0-3s-1.93,3,0,3h0Z"/>
    <path class="cls-1" d="M2314.06,926.71c1.93,0,1.93-3,0-3s-1.93,3,0,3h0Z"/>
    <path class="cls-1" d="M2501.53,1048.97c1.93,0,1.93-3,0-3s-1.93,3,0,3h0Z"/>
    <path class="cls-1" d="M2439.04,1198.41c1.93,0,1.93-3,0-3s-1.93,3,0,3h0Z"/>
    <path class="cls-1" d="M2744.7,1138.63c1.93,0,1.93-3,0-3s-1.93,3,0,3h0Z"/>
    <path class="cls-1" d="M2650.96,1239.16c1.93,0,1.93-3,0-3s-1.93,3,0,3h0Z"/>
    <path class="cls-1" d="M2997.38,1057.12c1.93,0,1.93-3,0-3s-1.93,3,0,3h0Z"/>
    <path class="cls-1" d="M2914.51,1258.18c1.93,0,1.93-3,0-3s-1.93,3,0,3h0Z"/>
    <path class="cls-1" d="M2894.13,1557.05c1.93,0,1.93-3,0-3s-1.93,3,0,3h0Z"/>
    <path class="cls-1" d="M2551.79,1426.63c1.93,0,1.93-3,0-3s-1.93,3,0,3h0Z"/>
    <path class="cls-1" d="M3142.74,1529.88c1.93,0,1.93-3,0-3s-1.93,3,0,3h0Z"/>
    <path class="cls-1" d="M3057.15,1399.46c1.93,0,1.93-3,0-3s-1.93,3,0,3h0Z"/>
    <path class="cls-1" d="M3404.92,1076.14c1.93,0,1.93-3,0-3s-1.93,3,0,3h0Z"/>
    <path class="cls-1" d="M3505.45,1283.99c1.93,0,1.93-3,0-3s-1.93,3,0,3h0Z"/>
    <path class="cls-1" d="M3645.38,1489.12c1.93,0,1.93-3,0-3s-1.93,3,0,3h0Z"/>
    <path class="cls-1" d="M3317.98,1622.25c1.93,0,1.93-3,0-3s-1.93,3,0,3h0Z"/>
    <path class="cls-1" d="M3062.58,1717.35c1.93,0,1.93-3,0-3s-1.93,3,0,3h0Z"/>
    <path class="cls-1" d="M2947.11,1840.97c1.93,0,1.93-3,0-3s-1.93,3,0,3h0Z"/>
    <path class="cls-1" d="M2827.57,2055.61c1.93,0,1.93-3,0-3s-1.93,3,0,3h0Z"/>
    <path class="cls-1" d="M2500.17,1868.14c1.93,0,1.93-3,0-3s-1.93,3,0,3h0Z"/>
    <path class="cls-1" d="M2502.89,2052.9c1.93,0,1.93-3,0-3s-1.93,3,0,3h0Z"/>
    <path class="cls-1" d="M3198.43,2055.61c1.93,0,1.93-3,0-3s-1.93,3,0,3h0Z"/>
    <path class="cls-1" d="M3429.38,1929.27c1.93,0,1.93-3,0-3s-1.93,3,0,3h0Z"/>
    <path class="cls-1" d="M3521.75,2020.29c1.93,0,1.93-3,0-3s-1.93,3,0,3h0Z"/>
    <path class="cls-1" d="M3639.94,1694.25c1.93,0,1.93-3,0-3s-1.93,3,0,3h0Z"/>
    <path class="cls-1" d="M3709.23,1912.97c1.93,0,1.93-3,0-3s-1.93,3,0,3h0Z"/>
    <path class="cls-1" d="M3131.87,779.99c1.93,0,1.93-3,0-3s-1.93,3,0,3h0Z"/>
    <path class="cls-1" d="M2997.38,608.82c1.93,0,1.93-3,0-3s-1.93,3,0,3h0Z"/>
    <path class="cls-1" d="M2593.91,444.44c1.93,0,1.93-3,0-3s-1.93,3,0,3h0Z"/>
    <path class="cls-1" d="M2758.28,331.69c1.93,0,1.93-3,0-3s-1.93,3,0,3h0Z"/>
    <path class="cls-1" d="M2801.75,569.42c1.93,0,1.93-3,0-3s-1.93,3,0,3h0Z"/>
    <path class="cls-1" d="M3047.64,137.42c1.93,0,1.93-3,0-3s-1.93,3,0,3h0Z"/>
    <path class="cls-1" d="M3203.87,214.86c1.93,0,1.93-3,0-3s-1.93,3,0,3h0Z"/>
    <path class="cls-1" d="M3077.53,319.46c1.93,0,1.93-3,0-3s-1.93,3,0,3h0Z"/>
    <path class="cls-1" d="M3569.3,134.71c1.93,0,1.93-3,0-3s-1.93,3,0,3h0Z"/>
    <path class="cls-1" d="M3366.89,115.69c1.93,0,1.93-3,0-3s-1.93,3,0,3h0Z"/>
    <path class="cls-1" d="M3179.42,565.35c1.93,0,1.93-3,0-3s-1.93,3,0,3h0Z"/>
    <path class="cls-1" d="M3365.53,648.22c1.93,0,1.93-3,0-3s-1.93,3,0,3h0Z"/>
    <path class="cls-1" d="M3698.36,428.14c1.93,0,1.93-3,0-3s-1.93,3,0,3h0Z"/>
    <path class="cls-1" d="M3506.81,706.63c1.93,0,1.93-3,0-3s-1.93,3,0,3h0Z"/>
    <path class="cls-1" d="M3702.43,740.59c1.93,0,1.93-3,0-3s-1.93,3,0,3h0Z"/>
    <path class="cls-1" d="M3684.77,957.95c1.93,0,1.93-3,0-3s-1.93,3,0,3h0Z"/>
    <path class="cls-1" d="M3705.15,1176.67c1.93,0,1.93-3,0-3s-1.93,3,0,3h0Z"/>
    <path class="cls-1" d="M3645.38,1107.39c1.93,0,1.93-3,0-3s-1.93,3,0,3h0Z"/>
    <path class="cls-1" d="M3751.34,1353.27c1.93,0,1.93-3,0-3s-1.93,3,0,3h0Z"/>
    <path class="cls-1" d="M1655.19,411.84c1.93,0,1.93-3,0-3s-1.93,3,0,3h0Z"/>
    <path class="cls-1" d="M1428.32,515.08c1.93,0,1.93-3,0-3s-1.93,3,0,3h0Z"/>
    <path class="cls-1" d="M1414.74,674.03c1.93,0,1.93-3,0-3s-1.93,3,0,3h0Z"/>
    <path class="cls-1" d="M1178.36,801.73c1.93,0,1.93-3,0-3s-1.93,3,0,3h0Z"/>
    <path class="cls-1" d="M1437.83,871.01c1.93,0,1.93-3,0-3s-1.93,3,0,3h0Z"/>
    <path class="cls-1" d="M901.23,837.05c1.93,0,1.93-3,0-3s-1.93,3,0,3h0Z"/>
    <path class="cls-1" d="M837.38,1123.69c1.93,0,1.93-3,0-3s-1.93,3,0,3h0Z"/>
    <path class="cls-1" d="M712.4,1259.54c1.93,0,1.93-3,0-3s-1.93,3,0,3h0Z"/>
    <path class="cls-1" d="M856.4,1339.69c1.93,0,1.93-3,0-3s-1.93,3,0,3h0Z"/>
    <path class="cls-1" d="M1249,1220.14c1.93,0,1.93-3,0-3s-1.93,3,0,3h0Z"/>
    <path class="cls-1" d="M2271.94,350.71c1.93,0,1.93-3,0-3s-1.93,3,0,3h0Z"/>
    <path class="cls-1" d="M2180.92,118.41c1.93,0,1.93-3,0-3s-1.93,3,0,3h0Z"/>
    <path class="cls-1" d="M2028.77,127.92c1.93,0,1.93-3,0-3s-1.93,3,0,3h0Z"/>
    <path class="cls-1" d="M1888.85,125.2c1.93,0,1.93-3,0-3s-1.93,3,0,3h0Z"/>
    <path class="cls-1" d="M2119.79,193.12c1.93,0,1.93-3,0-3s-1.93,3,0,3h0Z"/>
    <path class="cls-1" d="M1661.98,81.73c1.93,0,1.93-3,0-3s-1.93,3,0,3h0Z"/>
    <path class="cls-1" d="M1467.72,138.78c1.93,0,1.93-3,0-3s-1.93,3,0,3h0Z"/>
    <path class="cls-1" d="M1603.57,212.14c1.93,0,1.93-3,0-3s-1.93,3,0,3h0Z"/>
    <path class="cls-1" d="M1033,201.27c1.93,0,1.93-3,0-3s-1.93,3,0,3h0Z"/>
    <path class="cls-1" d="M711.04,197.2c1.93,0,1.93-3,0-3s-1.93,3,0,3h0Z"/>
    <path class="cls-1" d="M537.15,304.52c1.93,0,1.93-3,0-3s-1.93,3,0,3h0Z"/>
    <path class="cls-1" d="M640.4,406.41c1.93,0,1.93-3,0-3s-1.93,3,0,3h0Z"/>
    <path class="cls-1" d="M607.79,713.42c1.93,0,1.93-3,0-3s-1.93,3,0,3h0Z"/>
    <path class="cls-1" d="M398.58,640.07c1.93,0,1.93-3,0-3s-1.93,3,0,3h0Z"/>
    <path class="cls-1" d="M908.02,496.07c1.93,0,1.93-3,0-3s-1.93,3,0,3h0Z"/>
    <path class="cls-1" d="M518.13,89.88c1.93,0,1.93-3,0-3s-1.93,3,0,3h0Z"/>
    <path class="cls-1" d="M88.85,1308.44c1.93,0,1.93-3,0-3s-1.93,3,0,3h0Z"/>
    <path class="cls-1" d="M200.25,1512.22c1.93,0,1.93-3,0-3s-1.93,3,0,3h0Z"/>
    <path class="cls-1" d="M531.72,1619.54c1.93,0,1.93-3,0-3s-1.93,3,0,3h0Z"/>
    <path class="cls-1" d="M867.26,2054.25c1.93,0,1.93-3,0-3s-1.93,3,0,3h0Z"/>
    <path class="cls-1" d="M262.74,2086.86c1.93,0,1.93-3,0-3s-1.93,3,0,3h0Z"/>
    <path class="cls-1" d="M1191.94,1343.76c1.93,0,1.93-3,0-3s-1.93,3,0,3h0Z"/>
    <path class="cls-1" d="M3171.26,943.01c1.93,0,1.93-3,0-3s-1.93,3,0,3h0Z"/>
    <path class="cls-1" d="M3728.85,70.12c1.93,0,1.93-3,0-3s-1.93,3,0,3h0Z"/>
    <path class="cls-1" d="M3747.87,167.93c1.93,0,1.93-3,0-3s-1.93,3,0,3h0Z"/>
    <path class="cls-1" d="M3749.23,552.39c1.93,0,1.93-3,0-3s-1.93,3,0,3h0Z"/>
    <path class="cls-1" d="M2670.58,991.18c1.93,0,1.93-3,0-3s-1.93,3,0,3h0Z"/>
    <path class="cls-1" d="M2863.49,1016.99c1.93,0,1.93-3,0-3s-1.93,3,0,3h0Z"/>
    <path class="cls-1" d="M1903.04,897.44c1.93,0,1.93-3,0-3s-1.93,3,0,3h0Z"/>
    <path class="cls-1" d="M1662.58,820.01c1.93,0,1.93-3,0-3s-1.93,3,0,3h0Z"/>
    <path class="cls-1" d="M1267.26,992.54c1.93,0,1.93-3,0-3s-1.93,3,0,3h0Z"/>
    <path class="cls-1" d="M882.81,958.58c1.93,0,1.93-3,0-3s-1.93,3,0,3h0Z"/>
    <path class="cls-1" d="M915.42,640.69c1.93,0,1.93-3,0-3s-1.93,3,0,3h0Z"/>
    <path class="cls-1" d="M746.96,777.9c1.93,0,1.93-3,0-3s-1.93,3,0,3h0Z"/>
    <path class="cls-1" d="M3606.58,292.92c1.93,0,1.93-3,0-3s-1.93,3,0,3h0Z"/>
    <path class="cls-1" d="M3540.02,470.88c1.93,0,1.93-3,0-3s-1.93,3,0,3h0Z"/>
  </g>
</svg>