<?xml version="1.0" encoding="UTF-8"?>
<svg xmlns="http://www.w3.org/2000/svg" viewBox="0 0 3840 2160">
  <defs>
    <style>
      .cls-1 {
        fill: #64748b;
      }

      .cls-2 {
        fill: #e2e8f0;
      }

      .cls-3 {
        fill: #94a3b8;
      }

      .cls-4 {
        fill: #cbd5e1;
      }

      .cls-5 {
        fill: #f8fafc;
      }
    </style>
  </defs>
  <g id="smoke_top">
    <ellipse class="cls-2" cx="1656" cy="1902" rx="287" ry="122"/>
    <ellipse class="cls-2" cx="1870" cy="1860" rx="62" ry="122"/>
    <ellipse class="cls-2" cx="1805" cy="1882" rx="199" ry="122"/>
    <ellipse class="cls-2" cx="1918" cy="1852" rx="62" ry="122"/>
    <ellipse class="cls-2" cx="1968" cy="1862" rx="62" ry="122"/>
    <ellipse class="cls-2" cx="1967.5" cy="1884" rx="219.5" ry="122"/>
    <ellipse class="cls-2" cx="2176.5" cy="1917" rx="379.5" ry="122"/>
  </g>
  <g id="smoke_middle">
    <ellipse class="cls-4" cx="1196" cy="2004.5" rx="330" ry="114.5"/>
    <ellipse class="cls-4" cx="1455" cy="1948" rx="254" ry="122"/>
    <ellipse class="cls-4" cx="2529.5" cy="1982" rx="272.5" ry="122"/>
    <ellipse class="cls-4" cx="2162.5" cy="1948" rx="159.5" ry="122"/>
    <ellipse class="cls-4" cx="1906.5" cy="1928" rx="272.5" ry="122"/>
    <ellipse class="cls-4" cx="1690" cy="1941" rx="150" ry="122"/>
    <circle class="cls-4" cx="2305" cy="1959" r="122"/>
  </g>
  <g id="smoke_bottom">
    <path class="cls-3" d="M545,2159.75c0-47.22-122-85.5-272.5-85.5S0,2112.53,0,2159.75"/>
    <path class="cls-3" d="M3840.29,2160c0-51.36-150.26-93-335.61-93s-335.61,41.64-335.61,93"/>
    <ellipse class="cls-3" cx="3362.5" cy="2083" rx="272.5" ry="76"/>
    <ellipse class="cls-3" cx="630.5" cy="2066.5" rx="272.5" ry="92.5"/>
    <ellipse class="cls-3" cx="3170" cy="2055" rx="135" ry="105"/>
    <ellipse class="cls-3" cx="437.5" cy="2094.5" rx="276.5" ry="64.5"/>
    <ellipse class="cls-3" cx="959.5" cy="2051.5" rx="272.5" ry="107.5"/>
    <ellipse class="cls-3" cx="2856.5" cy="2043" rx="272.5" ry="116"/>
    <ellipse class="cls-3" cx="1201.5" cy="2045.5" rx="146.5" ry="113.5"/>
    <ellipse class="cls-3" cx="1490.5" cy="2019" rx="194.5" ry="122"/>
    <ellipse class="cls-3" cx="2609" cy="2038" rx="165" ry="122"/>
    <ellipse class="cls-3" cx="2330.5" cy="2050" rx="272.5" ry="109"/>
    <ellipse class="cls-3" cx="1892.5" cy="2040" rx="272.5" ry="122"/>
    <rect class="cls-3" x="116" y="2093" width="3553" height="67"/>
  </g>
  <g id="rocket">
    <path class="cls-1" d="M1890.95,1710h-41.91c-2.23,0-4.05-1.81-4.05-4.05v-249.66c0-.84,.26-1.67,.75-2.35l20.95-29.33c1.61-2.26,4.97-2.26,6.59,0l20.95,29.33c.49,.69,.75,1.51,.75,2.35v249.66c0,2.23-1.81,4.05-4.05,4.05Z"/>
    <path class="cls-1" d="M1990.95,1710h-41.91c-2.23,0-4.05-1.81-4.05-4.05v-249.66c0-.84,.26-1.67,.75-2.35l20.95-29.33c1.61-2.26,4.97-2.26,6.59,0l20.95,29.33c.49,.69,.75,1.51,.75,2.35v249.66c0,2.23-1.81,4.05-4.05,4.05Z"/>
    <path class="cls-5" d="M1950,1255.65v395.35c0,2.21-1.79,4-4,4h-51.99c-2.21,0-4-1.79-4-4v-395.35c0-.43-.07-.86-.21-1.27l-9.59-28.77c-.14-.41-.21-.84-.21-1.27v-73.7c0-.43,.07-.86,.21-1.27l36-107.99c1.22-3.65,6.38-3.65,7.6,0l36,107.99c.14,.41,.21,.84,.21,1.27v73.7c0,.43-.07,.86-.21,1.27l-9.59,28.77c-.14,.41-.21,.84-.21,1.27Z"/>
    <path class="cls-3" d="M1940.95,1710h-41.91c-2.23,0-4.05-1.81-4.05-4.05v-249.66c0-.84,.26-1.67,.75-2.35l20.95-29.33c1.61-2.26,4.97-2.26,6.59,0l20.95,29.33c.49,.69,.75,1.51,.75,2.35v249.66c0,2.23-1.81,4.05-4.05,4.05Z"/>
    <path class="cls-1" d="M1888.4,1720h-37.64c-.77,0-1.25-.84-.85-1.5l4.81-8.02c.18-.3,.5-.48,.85-.48h28.83c.38,0,.72,.21,.89,.55l4.01,8.02c.33,.66-.15,1.44-.89,1.44Z"/>
    <path class="cls-3" d="M1938.62,1720h-37.65c-.77,0-1.25-.84-.85-1.5l4.81-8.02c.18-.3,.5-.48,.85-.48h28.83c.38,0,.72,.21,.89,.55l4.01,8.02c.33,.66-.15,1.43-.89,1.43Z"/>
    <path class="cls-1" d="M1988.49,1720h-37.64c-.77,0-1.25-.84-.85-1.5l4.81-8.01c.18-.3,.5-.48,.85-.48h28.82c.38,0,.72,.21,.89,.55l4.01,8.01c.33,.66-.15,1.44-.89,1.44Z"/>
  </g>
</svg>