<?xml version="1.0" encoding="UTF-8"?>
<svg id="rocket" xmlns="http://www.w3.org/2000/svg" viewBox="0 0 3840 2160">
  <defs>
    <style>
      .cls-1 {
        fill: #64748b;
      }

      .cls-2 {
        fill: #94a3b8;
      }

      .cls-3 {
        fill: #f8fafc;
      }
    </style>
  </defs>
  <path class="cls-1" d="M1890.95,1710h-41.91c-2.23,0-4.05-1.81-4.05-4.05v-249.66c0-.84,.26-1.67,.75-2.35l20.95-29.33c1.61-2.26,4.97-2.26,6.59,0l20.95,29.33c.49,.69,.75,1.51,.75,2.35v249.66c0,2.23-1.81,4.05-4.05,4.05Z"/>
  <path class="cls-1" d="M1990.95,1710h-41.91c-2.23,0-4.05-1.81-4.05-4.05v-249.66c0-.84,.26-1.67,.75-2.35l20.95-29.33c1.61-2.26,4.97-2.26,6.59,0l20.95,29.33c.49,.69,.75,1.51,.75,2.35v249.66c0,2.23-1.81,4.05-4.05,4.05Z"/>
  <path class="cls-3" d="M1950,1255.65v395.35c0,2.21-1.79,4-4,4h-51.99c-2.21,0-4-1.79-4-4v-395.35c0-.43-.07-.86-.21-1.27l-9.59-28.77c-.14-.41-.21-.84-.21-1.27v-73.7c0-.43,.07-.86,.21-1.27l36-107.99c1.22-3.65,6.38-3.65,7.6,0l36,107.99c.14,.41,.21,.84,.21,1.27v73.7c0,.43-.07,.86-.21,1.27l-9.59,28.77c-.14,.41-.21,.84-.21,1.27Z"/>
  <path class="cls-2" d="M1940.95,1710h-41.91c-2.23,0-4.05-1.81-4.05-4.05v-249.66c0-.84,.26-1.67,.75-2.35l20.95-29.33c1.61-2.26,4.97-2.26,6.59,0l20.95,29.33c.49,.69,.75,1.51,.75,2.35v249.66c0,2.23-1.81,4.05-4.05,4.05Z"/>
  <path class="cls-1" d="M1888.4,1720h-37.64c-.77,0-1.25-.84-.85-1.5l4.81-8.02c.18-.3,.5-.48,.85-.48h28.83c.38,0,.72,.21,.89,.55l4.01,8.02c.33,.66-.15,1.44-.89,1.44Z"/>
  <path class="cls-2" d="M1938.62,1720h-37.65c-.77,0-1.25-.84-.85-1.5l4.81-8.02c.18-.3,.5-.48,.85-.48h28.83c.38,0,.72,.21,.89,.55l4.01,8.02c.33,.66-.15,1.43-.89,1.43Z"/>
  <path class="cls-1" d="M1988.49,1720h-37.64c-.77,0-1.25-.84-.85-1.5l4.81-8.01c.18-.3,.5-.48,.85-.48h28.82c.38,0,.72,.21,.89,.55l4.01,8.01c.33,.66-.15,1.44-.89,1.44Z"/>
</svg>