<?xml version="1.0" encoding="UTF-8"?>
<svg xmlns="http://www.w3.org/2000/svg" viewBox="0 0 3840 2160">
  <defs>
    <style>
      .cls-1 {
        fill: #64748b;
      }

      .cls-2 {
        fill: #fff;
      }

      .cls-3 {
        fill: #fb923c;
      }

      .cls-4 {
        fill: #e2e8f0;
      }

      .cls-5 {
        fill: #3b82f6;
      }

      .cls-6 {
        fill: #fcd34d;
      }

      .cls-7 {
        fill: none;
        stroke: #9a3412;
        stroke-miterlimit: 10;
        stroke-width: 15px;
      }

      .cls-8 {
        fill: #0f172a;
      }

      .cls-9 {
        fill: #f97316;
      }

      .cls-10 {
        fill: #22d3ee;
      }

      .cls-11 {
        fill: #94a3b8;
      }

      .cls-12 {
        fill: #cbd5e1;
      }

      .cls-13 {
        fill: #dc2626;
      }

      .cls-14 {
        fill: #fed7aa;
      }

      .cls-15 {
        fill: #f8fafc;
      }
    </style>
  </defs>
  <g id="sky">
    <g>
      <rect class="cls-8" x=".5" y=".5" width="3839" height="2159"/>
      <path d="M3839,1V2159H1V1H3839m1-1H0V2160H3840V0h0Z"/>
    </g>
  </g>
  <g id="stars">
    <path class="cls-2" d="M1765.23,191.19c6.43,0,6.45-10,0-10s-6.45,10,0,10h0Z"/>
    <path class="cls-2" d="M1785.6,250.96c6.43,0,6.45-10,0-10s-6.45,10,0,10h0Z"/>
    <path class="cls-2" d="M1853.53,294.43c6.43,0,6.45-10,0-10s-6.45,10,0,10h0Z"/>
    <path class="cls-2" d="M1940.47,321.6c6.43,0,6.45-10,0-10s-6.45,10,0,10h0Z"/>
    <path class="cls-2" d="M2038.28,305.3c6.43,0,6.45-10,0-10s-6.45,10,0,10h0Z"/>
    <path class="cls-2" d="M1949.98,388.17c6.43,0,6.45-10,0-10s-6.45,10,0,10h0Z"/>
    <path class="cls-2" d="M2072.25,389.53c6.43,0,6.45-10,0-10s-6.45,10,0,10h0Z"/>
    <path class="cls-2" d="M2259.72,1094.58c6.43,0,6.45-10,0-10s-6.45,10,0,10h0Z"/>
    <path class="cls-2" d="M2318.13,1162.51c6.43,0,6.45-10,0-10s-6.45,10,0,10h0Z"/>
    <path class="cls-2" d="M1435.11,1007.64c6.43,0,6.45-10,0-10s-6.45,10,0,10h0Z"/>
    <path class="cls-2" d="M1576.4,983.19c6.43,0,6.45-10,0-10s-6.45,10,0,10h0Z"/>
    <path class="cls-2" d="M1539.72,1076.92c6.43,0,6.45-10,0-10s-6.45,10,0,10h0Z"/>
    <path class="cls-2" d="M1367.19,1121.75c6.43,0,6.45-10,0-10s-6.45,10,0,10h0Z"/>
    <path class="cls-2" d="M1435.11,1109.53c6.43,0,6.45-10,0-10s-6.45,10,0,10h0Z"/>
    <path class="cls-2" d="M1595.42,1159.79c6.43,0,6.45-10,0-10s-6.45,10,0,10h0Z"/>
    <path class="cls-2" d="M1660.62,583.79c6.43,0,6.45-10,0-10s-6.45,10,0,10h0Z"/>
    <path class="cls-2" d="M1691.87,644.92c6.43,0,6.45-10,0-10s-6.45,10,0,10h0Z"/>
    <path class="cls-2" d="M1799.19,613.68c6.43,0,6.45-10,0-10s-6.45,10,0,10h0Z"/>
    <path class="cls-2" d="M1838.58,543.04c6.43,0,6.45-10,0-10s-6.45,10,0,10h0Z"/>
    <path class="cls-2" d="M1614.43,699.26c6.43,0,6.45-10,0-10s-6.45,10,0,10h0Z"/>
    <path class="cls-2" d="M1520.7,699.26c6.43,0,6.45-10,0-10s-6.45,10,0,10h0Z"/>
    <path class="cls-2" d="M1756.54,710.03l1.36-1.36c.49-.45,.83-.99,1.03-1.61,.31-.6,.46-1.24,.43-1.93,.03-.69-.12-1.33-.43-1.93-.2-.62-.55-1.16-1.03-1.61-.95-.87-2.2-1.52-3.54-1.46s-2.58,.51-3.54,1.46l-1.36,1.36c-.49,.45-.83,.99-1.03,1.61-.31,.6-.46,1.24-.43,1.93-.03,.69,.12,1.33,.43,1.93,.2,.62,.55,1.16,1.03,1.61,.95,.87,2.2,1.52,3.54,1.46s2.58-.51,3.54-1.46h0Z"/>
    <path class="cls-2" d="M1763.87,742.74c6.43,0,6.45-10,0-10s-6.45,10,0,10h0Z"/>
    <path class="cls-2" d="M1826.36,786.21c6.43,0,6.45-10,0-10s-6.45,10,0,10h0Z"/>
    <path class="cls-2" d="M2979.72,874.51c6.43,0,6.45-10,0-10s-6.45,10,0,10h0Z"/>
    <path class="cls-2" d="M2804.47,892.17c6.43,0,6.45-10,0-10s-6.45,10,0,10h0Z"/>
    <path class="cls-2" d="M2861.53,784.85c6.43,0,6.45-10,0-10s-6.45,10,0,10h0Z"/>
    <path class="cls-2" d="M2608.85,740.02c6.43,0,6.45-10,0-10s-6.45,10,0,10h0Z"/>
    <path class="cls-2" d="M2675.42,692.47c6.43,0,6.45-10,0-10s-6.45,10,0,10h0Z"/>
    <path class="cls-2" d="M2644.17,856.85c6.43,0,6.45-10,0-10s-6.45,10,0,10h0Z"/>
    <path class="cls-2" d="M3361.45,289c6.43,0,6.45-10,0-10s-6.45,10,0,10h0Z"/>
    <path class="cls-2" d="M3259.57,378.66c6.43,0,6.45-10,0-10s-6.45,10,0,10h0Z"/>
    <path class="cls-2" d="M3362.81,477.83c6.43,0,6.45-10,0-10s-6.45,10,0,10h0Z"/>
    <path class="cls-2" d="M2899.57,461.53c6.43,0,6.45-10,0-10s-6.45,10,0,10h0Z"/>
    <path class="cls-2" d="M2894.13,365.08c6.43,0,6.45-10,0-10s-6.45,10,0,10h0Z"/>
    <path class="cls-2" d="M3241.91,1151.64c6.43,0,6.45-10,0-10s-6.45,10,0,10h0Z"/>
    <path class="cls-2" d="M3173.98,1223.64c6.43,0,6.45-10,0-10s-6.45,10,0,10h0Z"/>
    <path class="cls-2" d="M3254.13,1210.06c6.43,0,6.45-10,0-10s-6.45,10,0,10h0Z"/>
    <path class="cls-2" d="M3331.57,1250.81c6.43,0,6.45-10,0-10s-6.45,10,0,10h0Z"/>
    <path class="cls-2" d="M3346.51,1339.11c6.43,0,6.45-10,0-10s-6.45,10,0,10h0Z"/>
    <path class="cls-2" d="M3319.34,1435.57c6.43,0,6.45-10,0-10s-6.45,10,0,10h0Z"/>
    <path class="cls-2" d="M1826.36,1396.17c6.43,0,6.45-10,0-10s-6.45,10,0,10h0Z"/>
    <path class="cls-2" d="M1825,1439.64c6.43,0,6.45-10,0-10s-6.45,10,0,10h0Z"/>
    <path class="cls-2" d="M1774.74,1580.92c6.43,0,6.45-10,0-10s-6.45,10,0,10h0Z"/>
    <path class="cls-2" d="M1753,1629.83c6.43,0,6.45-10,0-10s-6.45,10,0,10h0Z"/>
    <path class="cls-2" d="M1623.94,1585c6.43,0,6.45-10,0-10s-6.45,10,0,10h0Z"/>
    <path class="cls-2" d="M1541.08,1542.89c6.43,0,6.45-10,0-10s-6.45,10,0,10h0Z"/>
    <path class="cls-2" d="M1454.13,1405.68c6.43,0,6.45-10,0-10s-6.45,10,0,10h0Z"/>
    <path class="cls-2" d="M1490.81,1416.55c6.43,0,6.45-10,0-10s-6.45,10,0,10h0Z"/>
    <path class="cls-2" d="M1591.34,1434.21c6.43,0,6.45-10,0-10s-6.45,10,0,10h0Z"/>
    <path class="cls-2" d="M1690.51,1451.87c6.43,0,6.45-10,0-10s-6.45,10,0,10h0Z"/>
    <path class="cls-2" d="M212.47,704.7c6.43,0,6.45-10,0-10s-6.45,10,0,10h0Z"/>
    <path class="cls-2" d="M265.45,749.53c6.43,0,6.45-10,0-10s-6.45,10,0,10h0Z"/>
    <path class="cls-2" d="M440.7,854.13c6.43,0,6.45-10,0-10s-6.45,10,0,10h0Z"/>
    <path class="cls-2" d="M549.38,908.47c6.43,0,6.45-10,0-10s-6.45,10,0,10h0Z"/>
    <path class="cls-2" d="M652.62,915.26c6.43,0,6.45-10,0-10s-6.45,10,0,10h0Z"/>
    <path class="cls-2" d="M696.09,991.34c6.43,0,6.45-10,0-10s-6.45,10,0,10h0Z"/>
    <path class="cls-2" d="M630.89,1026.66c6.43,0,6.45-10,0-10s-6.45,10,0,10h0Z"/>
    <path class="cls-2" d="M565.68,1010.36c6.43,0,6.45-10,0-10s-6.45,10,0,10h0Z"/>
    <path class="cls-2" d="M764.02,276.77c6.43,0,6.45-10,0-10s-6.45,10,0,10h0Z"/>
    <path class="cls-2" d="M755.87,438.43c6.43,0,6.45-10,0-10s-6.45,10,0,10h0Z"/>
    <path class="cls-2" d="M833.3,305.3c6.43,0,6.45-10,0-10s-6.45,10,0,10h0Z"/>
    <path class="cls-2" d="M323.87,178.96c6.43,0,6.45-10,0-10s-6.45,10,0,10h0Z"/>
    <path class="cls-2" d="M337.45,314.81c6.43,0,6.45-10,0-10s-6.45,10,0,10h0Z"/>
    <path class="cls-2" d="M327.94,422.13c6.43,0,6.45-10,0-10s-6.45,10,0,10h0Z"/>
    <path class="cls-2" d="M299.42,438.43c6.43,0,6.45-10,0-10s-6.45,10,0,10h0Z"/>
    <path class="cls-2" d="M409.45,1974.89c6.43,0,6.45-10,0-10s-6.45,10,0,10h0Z"/>
    <path class="cls-2" d="M443.42,1894.74c6.43,0,6.45-10,0-10s-6.45,10,0,10h0Z"/>
    <path class="cls-2" d="M398.58,1714.06c6.43,0,6.45-10,0-10s-6.45,10,0,10h0Z"/>
    <path class="cls-2" d="M246.43,1661.08c6.43,0,6.45-10,0-10s-6.45,10,0,10h0Z"/>
    <path class="cls-2" d="M514.06,1435.57c6.43,0,6.45-10,0-10s-6.45,10,0,10h0Z"/>
    <path class="cls-2" d="M580.62,1449.15c6.43,0,6.45-10,0-10s-6.45,10,0,10h0Z"/>
    <path class="cls-2" d="M681.15,1537.45c6.43,0,6.45-10,0-10s-6.45,10,0,10h0Z"/>
    <path class="cls-2" d="M799.34,1480.4c6.43,0,6.45-10,0-10s-6.45,10,0,10h0Z"/>
    <path class="cls-2" d="M1052.02,1568.7c6.43,0,6.45-10,0-10s-6.45,10,0,10h0Z"/>
    <path class="cls-2" d="M1246.28,1536.09c6.43,0,6.45-10,0-10s-6.45,10,0,10h0Z"/>
    <path class="cls-2" d="M2204.02,1424.7c6.43,0,6.45-10,0-10s-6.45,10,0,10h0Z"/>
    <path class="cls-2" d="M2265.15,1492.62c6.43,0,6.45-10,0-10s-6.45,10,0,10h0Z"/>
    <path class="cls-2" d="M2292.32,1527.94c6.43,0,6.45-10,0-10s-6.45,10,0,10h0Z"/>
    <path class="cls-2" d="M2388.77,1465.45c6.43,0,6.45-10,0-10s-6.45,10,0,10h0Z"/>
    <path class="cls-2" d="M2367.04,1659.72c6.43,0,6.45-10,0-10s-6.45,10,0,10h0Z"/>
    <path class="cls-2" d="M2288.25,1708.62c6.43,0,6.45-10,0-10s-6.45,10,0,10h0Z"/>
    <path class="cls-2" d="M2330.36,1757.53c6.43,0,6.45-10,0-10s-6.45,10,0,10h0Z"/>
    <path class="cls-2" d="M2451.26,1646.13c6.43,0,6.45-10,0-10s-6.45,10,0,10h0Z"/>
    <path class="cls-2" d="M2626.51,1608.09c6.43,0,6.45-10,0-10s-6.45,10,0,10h0Z"/>
    <path class="cls-2" d="M2729.75,1468.17c6.43,0,6.45-10,0-10s-6.45,10,0,10h0Z"/>
    <path class="cls-2" d="M2695.79,1714.06c6.43,0,6.45-10,0-10s-6.45,10,0,10h0Z"/>
    <path class="cls-2" d="M2811.26,1733.08c6.43,0,6.45-10,0-10s-6.45,10,0,10h0Z"/>
    <path class="cls-2" d="M2676.77,1844.47c6.43,0,6.45-10,0-10s-6.45,10,0,10h0Z"/>
    <path class="cls-2" d="M2732.47,1902.89c6.43,0,6.45-10,0-10s-6.45,10,0,10h0Z"/>
    <path class="cls-2" d="M3129.15,1921.91c6.43,0,6.45-10,0-10s-6.45,10,0,10h0Z"/>
    <path class="cls-2" d="M3183.49,1855.34c6.43,0,6.45-10,0-10s-6.45,10,0,10h0Z"/>
    <path class="cls-2" d="M3347.87,1833.6c6.43,0,6.45-10,0-10s-6.45,10,0,10h0Z"/>
    <path class="cls-2" d="M3451.11,1703.19c6.43,0,6.45-10,0-10s-6.45,10,0,10h0Z"/>
    <path class="cls-2" d="M3506.81,1787.42c6.43,0,6.45-10,0-10s-6.45,10,0,10h0Z"/>
    <path class="cls-2" d="M1196.02,408.55c6.43,0,6.45-10,0-10s-6.45,10,0,10h0Z"/>
    <path class="cls-2" d="M1085.98,468.32c6.43,0,6.45-10,0-10s-6.45,10,0,10h0Z"/>
    <path class="cls-2" d="M1033,666.66c6.43,0,6.45-10,0-10s-6.45,10,0,10h0Z"/>
    <path class="cls-2" d="M1062.89,680.25c6.43,0,6.45-10,0-10s-6.45,10,0,10h0Z"/>
    <path class="cls-2" d="M1206.89,635.42c6.43,0,6.45-10,0-10s-6.45,10,0,10h0Z"/>
    <path class="cls-2" d="M1231.34,496.85c6.43,0,6.45-10,0-10s-6.45,10,0,10h0Z"/>
    <path class="cls-2" d="M1075.11,1015.79c6.43,0,6.45-10,0-10s-6.45,10,0,10h0Z"/>
    <path class="cls-2" d="M1011.26,1037.53c6.43,0,6.45-10,0-10s-6.45,10,0,10h0Z"/>
    <path class="cls-2" d="M1052.02,1098.66c6.43,0,6.45-10,0-10s-6.45,10,0,10h0Z"/>
    <path class="cls-2" d="M989.53,1140.77c6.43,0,6.45-10,0-10s-6.45,10,0,10h0Z"/>
    <path class="cls-2" d="M1037.08,1178.81c6.43,0,6.45-10,0-10s-6.45,10,0,10h0Z"/>
    <path class="cls-2" d="M973.23,1246.74c6.43,0,6.45-10,0-10s-6.45,10,0,10h0Z"/>
    <path class="cls-2" d="M1007.19,1328.25c6.43,0,6.45-10,0-10s-6.45,10,0,10h0Z"/>
    <path class="cls-2" d="M978.66,1352.7c6.43,0,6.45-10,0-10s-6.45,10,0,10h0Z"/>
    <path class="cls-2" d="M2460.77,562.06c6.43,0,6.45-10,0-10s-6.45,10,0,10h0Z"/>
    <path class="cls-2" d="M2414.58,490.06c6.43,0,6.45-10,0-10s-6.45,10,0,10h0Z"/>
    <path class="cls-2" d="M2443.11,419.42c6.43,0,6.45-10,0-10s-6.45,10,0,10h0Z"/>
    <path class="cls-2" d="M2439.04,329.75c6.43,0,6.45-10,0-10s-6.45,10,0,10h0Z"/>
    <path class="cls-2" d="M2375.19,155.87c6.43,0,6.45-10,0-10s-6.45,10,0,10h0Z"/>
    <path class="cls-2" d="M2474.36,159.94c6.43,0,6.45-10,0-10s-6.45,10,0,10h0Z"/>
    <path class="cls-2" d="M2506.96,283.57c6.43,0,6.45-10,0-10s-6.45,10,0,10h0Z"/>
    <path class="cls-2" d="M2295.04,60.77c6.43,0,6.45-10,0-10s-6.45,10,0,10h0Z"/>
    <path class="cls-2" d="M2619.72,287.64c6.43,0,6.45-10,0-10s-6.45,10,0,10h0Z"/>
    <path class="cls-2" d="M2708.02,184.4c6.43,0,6.45-10,0-10s-6.45,10,0,10h0Z"/>
    <path class="cls-2" d="M2861.53,196.62c6.43,0,6.45-10,0-10s-6.45,10,0,10h0Z"/>
    <path class="cls-2" d="M2740.62,45.83c6.43,0,6.45-10,0-10s-6.45,10,0,10h0Z"/>
    <path class="cls-2" d="M2379.26,47.19c6.43,0,6.45-10,0-10s-6.45,10,0,10h0Z"/>
    <path class="cls-2" d="M3349.03,911.86l2.72-1.36c1.08-.54,1.99-1.86,2.3-2.99,.33-1.2,.18-2.79-.5-3.85s-1.71-2.01-2.99-2.3c-1.36-.31-2.6-.12-3.85,.5l-2.72,1.36c-1.08,.54-1.99,1.86-2.3,2.99-.33,1.2-.18,2.79,.5,3.85s1.71,2.01,2.99,2.3c1.36,.31,2.6,.12,3.85-.5h0Z"/>
    <path class="cls-2" d="M3354.66,805.23c6.43,0,6.45-10,0-10s-6.45,10,0,10h0Z"/>
    <path class="cls-2" d="M3559.79,840.55c6.43,0,6.45-10,0-10s-6.45,10,0,10h0Z"/>
    <path class="cls-2" d="M999.04,93.95c1.93,0,1.93-3,0-3s-1.93,3,0,3h0Z"/>
    <path class="cls-2" d="M1296.55,110.25c1.93,0,1.93-3,0-3s-1.93,3,0,3h0Z"/>
    <path class="cls-2" d="M1147.11,237.95c1.93,0,1.93-3,0-3s-1.93,3,0,3h0Z"/>
    <path class="cls-2" d="M1448.7,285.5c1.93,0,1.93-3,0-3s-1.93,3,0,3h0Z"/>
    <path class="cls-2" d="M755.87,655.01c1.93,0,1.93-3,0-3s-1.93,3,0,3h0Z"/>
    <path class="cls-2" d="M488.25,543.61c1.93,0,1.93-3,0-3s-1.93,3,0,3h0Z"/>
    <path class="cls-2" d="M543.94,258.33c1.93,0,1.93-3,0-3s-1.93,3,0,3h0Z"/>
    <path class="cls-2" d="M110.58,93.95c1.93,0,1.93-3,0-3s-1.93,3,0,3h0Z"/>
    <path class="cls-2" d="M178.51,296.37c1.93,0,1.93-3,0-3s-1.93,3,0,3h0Z"/>
    <path class="cls-2" d="M105.15,504.22c1.93,0,1.93-3,0-3s-1.93,3,0,3h0Z"/>
    <path class="cls-2" d="M124.17,841.12c1.93,0,1.93-3,0-3s-1.93,3,0,3h0Z"/>
    <path class="cls-2" d="M323.87,1009.58c1.93,0,1.93-3,0-3s-1.93,3,0,3h0Z"/>
    <path class="cls-2" d="M135.04,1066.63c1.93,0,1.93-3,0-3s-1.93,3,0,3h0Z"/>
    <path class="cls-2" d="M546.66,1179.39c1.93,0,1.93-3,0-3s-1.93,3,0,3h0Z"/>
    <path class="cls-2" d="M337.45,1197.05c1.93,0,1.93-3,0-3s-1.93,3,0,3h0Z"/>
    <path class="cls-2" d="M217.91,1355.99c1.93,0,1.93-3,0-3s-1.93,3,0,3h0Z"/>
    <path class="cls-2" d="M376.85,1427.99c1.93,0,1.93-3,0-3s-1.93,3,0,3h0Z"/>
    <path class="cls-2" d="M132.32,1815.16c1.93,0,1.93-3,0-3s-1.93,3,0,3h0Z"/>
    <path class="cls-2" d="M221.98,1933.35c1.93,0,1.93-3,0-3s-1.93,3,0,3h0Z"/>
    <path class="cls-2" d="M704.25,1739.08c1.93,0,1.93-3,0-3s-1.93,3,0,3h0Z"/>
    <path class="cls-2" d="M643.11,1931.99c1.93,0,1.93-3,0-3s-1.93,3,0,3h0Z"/>
    <path class="cls-2" d="M884.92,1903.46c1.93,0,1.93-3,0-3s-1.93,3,0,3h0Z"/>
    <path class="cls-2" d="M1062.89,1743.16c1.93,0,1.93-3,0-3s-1.93,3,0,3h0Z"/>
    <path class="cls-2" d="M1126.74,2031.16c1.93,0,1.93-3,0-3s-1.93,3,0,3h0Z"/>
    <path class="cls-2" d="M1282.96,1888.52c1.93,0,1.93-3,0-3s-1.93,3,0,3h0Z"/>
    <path class="cls-2" d="M1455.49,1733.65c1.93,0,1.93-3,0-3s-1.93,3,0,3h0Z"/>
    <path class="cls-2" d="M1507.11,1919.76c1.93,0,1.93-3,0-3s-1.93,3,0,3h0Z"/>
    <path class="cls-2" d="M1545.15,1983.61c1.93,0,1.93-3,0-3s-1.93,3,0,3h0Z"/>
    <path class="cls-2" d="M1713.6,1883.08c1.93,0,1.93-3,0-3s-1.93,3,0,3h0Z"/>
    <path class="cls-2" d="M1974.43,1703.76c1.93,0,1.93-3,0-3s-1.93,3,0,3h0Z"/>
    <path class="cls-2" d="M2012.47,1850.48c1.93,0,1.93-3,0-3s-1.93,3,0,3h0Z"/>
    <path class="cls-2" d="M2258.36,1960.52h1.36c.21,0,.4-.04,.58-.13,.19-.06,.35-.16,.48-.31,.15-.14,.25-.3,.31-.48,.09-.18,.14-.37,.13-.58l-.05-.4c-.07-.25-.2-.47-.39-.66l-.3-.23c-.23-.14-.49-.2-.76-.2h-1.36c-.21,0-.4,.04-.58,.13-.19,.06-.35,.16-.48,.31-.15,.14-.25,.3-.31,.48-.09,.18-.14,.37-.13,.58l.05,.4c.07,.25,.2,.47,.39,.66l.3,.23c.23,.14,.49,.2,.76,.2h0Z"/>
    <path class="cls-2" d="M1948.62,2050.18c1.93,0,1.93-3,0-3s-1.93,3,0,3h0Z"/>
    <path class="cls-2" d="M2038.28,1508.14c1.93,0,1.93-3,0-3s-1.93,3,0,3h0Z"/>
    <path class="cls-2" d="M1918.74,1266.33c1.93,0,1.93-3,0-3s-1.93,3,0,3h0Z"/>
    <path class="cls-2" d="M1705.45,1250.03c1.93,0,1.93-3,0-3s-1.93,3,0,3h0Z"/>
    <path class="cls-2" d="M1750.28,1013.65c1.93,0,1.93-3,0-3s-1.93,3,0,3h0Z"/>
    <path class="cls-2" d="M2036.92,947.08c1.93,0,1.93-3,0-3s-1.93,3,0,3h0Z"/>
    <path class="cls-2" d="M1973.19,1097.88c1.93,0,1.93-3,0-3s-1.93,3,0,3h0Z"/>
    <path class="cls-2" d="M2111.64,1129.12c1.93,0,1.93-3,0-3s-1.93,3,0,3h0Z"/>
    <path class="cls-2" d="M2077.68,952.52c1.93,0,1.93-3,0-3s-1.93,3,0,3h0Z"/>
    <path class="cls-2" d="M2070.89,811.24c1.93,0,1.93-3,0-3s-1.93,3,0,3h0Z"/>
    <path class="cls-2" d="M2220.32,714.78c1.93,0,1.93-3,0-3s-1.93,3,0,3h0Z"/>
    <path class="cls-2" d="M2079.04,611.54c1.93,0,1.93-3,0-3s-1.93,3,0,3h0Z"/>
    <path class="cls-2" d="M2028.77,680.82c1.93,0,1.93-3,0-3s-1.93,3,0,3h0Z"/>
    <path class="cls-2" d="M2262.43,539.54c1.93,0,1.93-3,0-3s-1.93,3,0,3h0Z"/>
    <path class="cls-2" d="M2458.06,837.05c1.93,0,1.93-3,0-3s-1.93,3,0,3h0Z"/>
    <path class="cls-2" d="M2314.06,926.71c1.93,0,1.93-3,0-3s-1.93,3,0,3h0Z"/>
    <path class="cls-2" d="M2501.53,1048.97c1.93,0,1.93-3,0-3s-1.93,3,0,3h0Z"/>
    <path class="cls-2" d="M2439.04,1198.41c1.93,0,1.93-3,0-3s-1.93,3,0,3h0Z"/>
    <path class="cls-2" d="M2744.7,1138.63c1.93,0,1.93-3,0-3s-1.93,3,0,3h0Z"/>
    <path class="cls-2" d="M2650.96,1239.16c1.93,0,1.93-3,0-3s-1.93,3,0,3h0Z"/>
    <path class="cls-2" d="M2997.38,1057.12c1.93,0,1.93-3,0-3s-1.93,3,0,3h0Z"/>
    <path class="cls-2" d="M2914.51,1258.18c1.93,0,1.93-3,0-3s-1.93,3,0,3h0Z"/>
    <path class="cls-2" d="M2894.13,1557.05c1.93,0,1.93-3,0-3s-1.93,3,0,3h0Z"/>
    <path class="cls-2" d="M2551.79,1426.63c1.93,0,1.93-3,0-3s-1.93,3,0,3h0Z"/>
    <path class="cls-2" d="M3142.74,1529.88c1.93,0,1.93-3,0-3s-1.93,3,0,3h0Z"/>
    <path class="cls-2" d="M3057.15,1399.46c1.93,0,1.93-3,0-3s-1.93,3,0,3h0Z"/>
    <path class="cls-2" d="M3404.92,1076.14c1.93,0,1.93-3,0-3s-1.93,3,0,3h0Z"/>
    <path class="cls-2" d="M3505.45,1283.99c1.93,0,1.93-3,0-3s-1.93,3,0,3h0Z"/>
    <path class="cls-2" d="M3645.38,1489.12c1.93,0,1.93-3,0-3s-1.93,3,0,3h0Z"/>
    <path class="cls-2" d="M3317.98,1622.25c1.93,0,1.93-3,0-3s-1.93,3,0,3h0Z"/>
    <path class="cls-2" d="M3062.58,1717.35c1.93,0,1.93-3,0-3s-1.93,3,0,3h0Z"/>
    <path class="cls-2" d="M2947.11,1840.97c1.93,0,1.93-3,0-3s-1.93,3,0,3h0Z"/>
    <path class="cls-2" d="M2827.57,2055.61c1.93,0,1.93-3,0-3s-1.93,3,0,3h0Z"/>
    <path class="cls-2" d="M2500.17,1868.14c1.93,0,1.93-3,0-3s-1.93,3,0,3h0Z"/>
    <path class="cls-2" d="M2502.89,2052.9c1.93,0,1.93-3,0-3s-1.93,3,0,3h0Z"/>
    <path class="cls-2" d="M3198.43,2055.61c1.93,0,1.93-3,0-3s-1.93,3,0,3h0Z"/>
    <path class="cls-2" d="M3429.38,1929.27c1.93,0,1.93-3,0-3s-1.93,3,0,3h0Z"/>
    <path class="cls-2" d="M3521.75,2020.29c1.93,0,1.93-3,0-3s-1.93,3,0,3h0Z"/>
    <path class="cls-2" d="M3639.94,1694.25c1.93,0,1.93-3,0-3s-1.93,3,0,3h0Z"/>
    <path class="cls-2" d="M3709.23,1912.97c1.93,0,1.93-3,0-3s-1.93,3,0,3h0Z"/>
    <path class="cls-2" d="M3131.87,779.99c1.93,0,1.93-3,0-3s-1.93,3,0,3h0Z"/>
    <path class="cls-2" d="M2997.38,608.82c1.93,0,1.93-3,0-3s-1.93,3,0,3h0Z"/>
    <path class="cls-2" d="M2593.91,444.44c1.93,0,1.93-3,0-3s-1.93,3,0,3h0Z"/>
    <path class="cls-2" d="M2758.28,331.69c1.93,0,1.93-3,0-3s-1.93,3,0,3h0Z"/>
    <path class="cls-2" d="M2801.75,569.42c1.93,0,1.93-3,0-3s-1.93,3,0,3h0Z"/>
    <path class="cls-2" d="M3047.64,137.42c1.93,0,1.93-3,0-3s-1.93,3,0,3h0Z"/>
    <path class="cls-2" d="M3203.87,214.86c1.93,0,1.93-3,0-3s-1.93,3,0,3h0Z"/>
    <path class="cls-2" d="M3077.53,319.46c1.93,0,1.93-3,0-3s-1.93,3,0,3h0Z"/>
    <path class="cls-2" d="M3569.3,134.71c1.93,0,1.93-3,0-3s-1.93,3,0,3h0Z"/>
    <path class="cls-2" d="M3366.89,115.69c1.93,0,1.93-3,0-3s-1.93,3,0,3h0Z"/>
    <path class="cls-2" d="M3179.42,565.35c1.93,0,1.93-3,0-3s-1.93,3,0,3h0Z"/>
    <path class="cls-2" d="M3365.53,648.22c1.93,0,1.93-3,0-3s-1.93,3,0,3h0Z"/>
    <path class="cls-2" d="M3698.36,428.14c1.93,0,1.93-3,0-3s-1.93,3,0,3h0Z"/>
    <path class="cls-2" d="M3506.81,706.63c1.93,0,1.93-3,0-3s-1.93,3,0,3h0Z"/>
    <path class="cls-2" d="M3702.43,740.59c1.93,0,1.93-3,0-3s-1.93,3,0,3h0Z"/>
    <path class="cls-2" d="M3684.77,957.95c1.93,0,1.93-3,0-3s-1.93,3,0,3h0Z"/>
    <path class="cls-2" d="M3705.15,1176.67c1.93,0,1.93-3,0-3s-1.93,3,0,3h0Z"/>
    <path class="cls-2" d="M3645.38,1107.39c1.93,0,1.93-3,0-3s-1.93,3,0,3h0Z"/>
    <path class="cls-2" d="M3751.34,1353.27c1.93,0,1.93-3,0-3s-1.93,3,0,3h0Z"/>
    <path class="cls-2" d="M1655.19,411.84c1.93,0,1.93-3,0-3s-1.93,3,0,3h0Z"/>
    <path class="cls-2" d="M1428.32,515.08c1.93,0,1.93-3,0-3s-1.93,3,0,3h0Z"/>
    <path class="cls-2" d="M1414.74,674.03c1.93,0,1.93-3,0-3s-1.93,3,0,3h0Z"/>
    <path class="cls-2" d="M1178.36,801.73c1.93,0,1.93-3,0-3s-1.93,3,0,3h0Z"/>
    <path class="cls-2" d="M1437.83,871.01c1.93,0,1.93-3,0-3s-1.93,3,0,3h0Z"/>
    <path class="cls-2" d="M901.23,837.05c1.93,0,1.93-3,0-3s-1.93,3,0,3h0Z"/>
    <path class="cls-2" d="M837.38,1123.69c1.93,0,1.93-3,0-3s-1.93,3,0,3h0Z"/>
    <path class="cls-2" d="M712.4,1259.54c1.93,0,1.93-3,0-3s-1.93,3,0,3h0Z"/>
    <path class="cls-2" d="M856.4,1339.69c1.93,0,1.93-3,0-3s-1.93,3,0,3h0Z"/>
    <path class="cls-2" d="M1249,1220.14c1.93,0,1.93-3,0-3s-1.93,3,0,3h0Z"/>
    <path class="cls-2" d="M2271.94,350.71c1.93,0,1.93-3,0-3s-1.93,3,0,3h0Z"/>
    <path class="cls-2" d="M2180.92,118.41c1.93,0,1.93-3,0-3s-1.93,3,0,3h0Z"/>
    <path class="cls-2" d="M2028.77,127.92c1.93,0,1.93-3,0-3s-1.93,3,0,3h0Z"/>
    <path class="cls-2" d="M1888.85,125.2c1.93,0,1.93-3,0-3s-1.93,3,0,3h0Z"/>
    <path class="cls-2" d="M2119.79,193.12c1.93,0,1.93-3,0-3s-1.93,3,0,3h0Z"/>
    <path class="cls-2" d="M1661.98,81.73c1.93,0,1.93-3,0-3s-1.93,3,0,3h0Z"/>
    <path class="cls-2" d="M1467.72,138.78c1.93,0,1.93-3,0-3s-1.93,3,0,3h0Z"/>
    <path class="cls-2" d="M1603.57,212.14c1.93,0,1.93-3,0-3s-1.93,3,0,3h0Z"/>
    <path class="cls-2" d="M1033,201.27c1.93,0,1.93-3,0-3s-1.93,3,0,3h0Z"/>
    <path class="cls-2" d="M711.04,197.2c1.93,0,1.93-3,0-3s-1.93,3,0,3h0Z"/>
    <path class="cls-2" d="M537.15,304.52c1.93,0,1.93-3,0-3s-1.93,3,0,3h0Z"/>
    <path class="cls-2" d="M640.4,406.41c1.93,0,1.93-3,0-3s-1.93,3,0,3h0Z"/>
    <path class="cls-2" d="M607.79,713.42c1.93,0,1.93-3,0-3s-1.93,3,0,3h0Z"/>
    <path class="cls-2" d="M398.58,640.07c1.93,0,1.93-3,0-3s-1.93,3,0,3h0Z"/>
    <path class="cls-2" d="M908.02,496.07c1.93,0,1.93-3,0-3s-1.93,3,0,3h0Z"/>
    <path class="cls-2" d="M518.13,89.88c1.93,0,1.93-3,0-3s-1.93,3,0,3h0Z"/>
    <path class="cls-2" d="M88.85,1308.44c1.93,0,1.93-3,0-3s-1.93,3,0,3h0Z"/>
    <path class="cls-2" d="M200.25,1512.22c1.93,0,1.93-3,0-3s-1.93,3,0,3h0Z"/>
    <path class="cls-2" d="M531.72,1619.54c1.93,0,1.93-3,0-3s-1.93,3,0,3h0Z"/>
    <path class="cls-2" d="M867.26,2054.25c1.93,0,1.93-3,0-3s-1.93,3,0,3h0Z"/>
    <path class="cls-2" d="M262.74,2086.86c1.93,0,1.93-3,0-3s-1.93,3,0,3h0Z"/>
    <path class="cls-2" d="M1191.94,1343.76c1.93,0,1.93-3,0-3s-1.93,3,0,3h0Z"/>
    <path class="cls-2" d="M3171.26,943.01c1.93,0,1.93-3,0-3s-1.93,3,0,3h0Z"/>
    <path class="cls-2" d="M3728.85,70.12c1.93,0,1.93-3,0-3s-1.93,3,0,3h0Z"/>
    <path class="cls-2" d="M3747.87,167.93c1.93,0,1.93-3,0-3s-1.93,3,0,3h0Z"/>
    <path class="cls-2" d="M3749.23,552.39c1.93,0,1.93-3,0-3s-1.93,3,0,3h0Z"/>
    <path class="cls-2" d="M2670.58,991.18c1.93,0,1.93-3,0-3s-1.93,3,0,3h0Z"/>
    <path class="cls-2" d="M2863.49,1016.99c1.93,0,1.93-3,0-3s-1.93,3,0,3h0Z"/>
    <path class="cls-2" d="M1903.04,897.44c1.93,0,1.93-3,0-3s-1.93,3,0,3h0Z"/>
    <path class="cls-2" d="M1662.58,820.01c1.93,0,1.93-3,0-3s-1.93,3,0,3h0Z"/>
    <path class="cls-2" d="M1267.26,992.54c1.93,0,1.93-3,0-3s-1.93,3,0,3h0Z"/>
    <path class="cls-2" d="M882.81,958.58c1.93,0,1.93-3,0-3s-1.93,3,0,3h0Z"/>
    <path class="cls-2" d="M915.42,640.69c1.93,0,1.93-3,0-3s-1.93,3,0,3h0Z"/>
    <path class="cls-2" d="M746.96,777.9c1.93,0,1.93-3,0-3s-1.93,3,0,3h0Z"/>
    <path class="cls-2" d="M3606.58,292.92c1.93,0,1.93-3,0-3s-1.93,3,0,3h0Z"/>
    <path class="cls-2" d="M3540.02,470.88c1.93,0,1.93-3,0-3s-1.93,3,0,3h0Z"/>
  </g>
  <g id="neptune">
    <circle class="cls-10" cx="904.5" cy="831.5" r="55"/>
  </g>
  <g id="uranus">
    <circle class="cls-5" cx="2960" cy="1401" r="60"/>
  </g>
  <g id="saturn">
    <path class="cls-9" d="M550.39,387.09c16.34,35.04,1.18,76.69-33.86,93.02-35.04,16.34-76.69,1.18-93.02-33.86"/>
    <ellipse class="cls-7" cx="488.73" cy="416.95" rx="110" ry="17.5" transform="translate(-130.42 245.61) rotate(-25)"/>
    <path class="cls-9" d="M423.89,447.08c-16.34-35.04-1.18-76.69,33.86-93.02,35.04-16.34,76.69-1.18,93.02,33.86"/>
  </g>
  <g id="jupiter">
    <circle class="cls-14" cx="2239.5" cy="473.5" r="100.5"/>
  </g>
  <g id="mars">
    <circle class="cls-13" cx="3493.5" cy="1002.5" r="37.5"/>
  </g>
  <g id="venus">
    <circle class="cls-3" cx="1235" cy="1354" r="60"/>
  </g>
  <g id="mercury">
    <circle class="cls-6" cx="399" cy="1556" r="24"/>
  </g>
  <g id="smoke_top">
    <ellipse class="cls-4" cx="1656" cy="1902" rx="287" ry="122"/>
    <ellipse class="cls-4" cx="1870" cy="1860" rx="62" ry="122"/>
    <ellipse class="cls-4" cx="1805" cy="1882" rx="199" ry="122"/>
    <ellipse class="cls-4" cx="1918" cy="1852" rx="62" ry="122"/>
    <ellipse class="cls-4" cx="1968" cy="1862" rx="62" ry="122"/>
    <ellipse class="cls-4" cx="1967.5" cy="1884" rx="219.5" ry="122"/>
    <ellipse class="cls-4" cx="2176.5" cy="1917" rx="379.5" ry="122"/>
  </g>
  <g id="smoke_middle">
    <ellipse class="cls-12" cx="1196" cy="2004.5" rx="330" ry="114.5"/>
    <ellipse class="cls-12" cx="1455" cy="1948" rx="254" ry="122"/>
    <ellipse class="cls-12" cx="2529.5" cy="1982" rx="272.5" ry="122"/>
    <ellipse class="cls-12" cx="2162.5" cy="1948" rx="159.5" ry="122"/>
    <ellipse class="cls-12" cx="1906.5" cy="1928" rx="272.5" ry="122"/>
    <ellipse class="cls-12" cx="1690" cy="1941" rx="150" ry="122"/>
    <circle class="cls-12" cx="2305" cy="1959" r="122"/>
  </g>
  <g id="smoke_bottom">
    <path class="cls-11" d="M545,2159.75c0-47.22-122-85.5-272.5-85.5S0,2112.53,0,2159.75"/>
    <path class="cls-11" d="M3840.29,2160c0-51.36-150.26-93-335.61-93s-335.61,41.64-335.61,93"/>
    <ellipse class="cls-11" cx="3362.5" cy="2083" rx="272.5" ry="76"/>
    <ellipse class="cls-11" cx="630.5" cy="2066.5" rx="272.5" ry="92.5"/>
    <ellipse class="cls-11" cx="3170" cy="2055" rx="135" ry="105"/>
    <ellipse class="cls-11" cx="437.5" cy="2094.5" rx="276.5" ry="64.5"/>
    <ellipse class="cls-11" cx="959.5" cy="2051.5" rx="272.5" ry="107.5"/>
    <ellipse class="cls-11" cx="2856.5" cy="2043" rx="272.5" ry="116"/>
    <ellipse class="cls-11" cx="1201.5" cy="2045.5" rx="146.5" ry="113.5"/>
    <ellipse class="cls-11" cx="1490.5" cy="2019" rx="194.5" ry="122"/>
    <ellipse class="cls-11" cx="2609" cy="2038" rx="165" ry="122"/>
    <ellipse class="cls-11" cx="2330.5" cy="2050" rx="272.5" ry="109"/>
    <ellipse class="cls-11" cx="1892.5" cy="2040" rx="272.5" ry="122"/>
    <rect class="cls-11" x="116" y="2093" width="3553" height="67"/>
  </g>
  <g id="rocket">
    <path class="cls-1" d="M1890.95,1710h-41.91c-2.23,0-4.05-1.81-4.05-4.05v-249.66c0-.84,.26-1.67,.75-2.35l20.95-29.33c1.61-2.26,4.97-2.26,6.59,0l20.95,29.33c.49,.69,.75,1.51,.75,2.35v249.66c0,2.23-1.81,4.05-4.05,4.05Z"/>
    <path class="cls-1" d="M1990.95,1710h-41.91c-2.23,0-4.05-1.81-4.05-4.05v-249.66c0-.84,.26-1.67,.75-2.35l20.95-29.33c1.61-2.26,4.97-2.26,6.59,0l20.95,29.33c.49,.69,.75,1.51,.75,2.35v249.66c0,2.23-1.81,4.05-4.05,4.05Z"/>
    <path class="cls-15" d="M1950,1255.65v395.35c0,2.21-1.79,4-4,4h-51.99c-2.21,0-4-1.79-4-4v-395.35c0-.43-.07-.86-.21-1.27l-9.59-28.77c-.14-.41-.21-.84-.21-1.27v-73.7c0-.43,.07-.86,.21-1.27l36-107.99c1.22-3.65,6.38-3.65,7.6,0l36,107.99c.14,.41,.21,.84,.21,1.27v73.7c0,.43-.07,.86-.21,1.27l-9.59,28.77c-.14,.41-.21,.84-.21,1.27Z"/>
    <path class="cls-11" d="M1940.95,1710h-41.91c-2.23,0-4.05-1.81-4.05-4.05v-249.66c0-.84,.26-1.67,.75-2.35l20.95-29.33c1.61-2.26,4.97-2.26,6.59,0l20.95,29.33c.49,.69,.75,1.51,.75,2.35v249.66c0,2.23-1.81,4.05-4.05,4.05Z"/>
    <path class="cls-1" d="M1888.4,1720h-37.64c-.77,0-1.25-.84-.85-1.5l4.81-8.02c.18-.3,.5-.48,.85-.48h28.83c.38,0,.72,.21,.89,.55l4.01,8.02c.33,.66-.15,1.44-.89,1.44Z"/>
    <path class="cls-11" d="M1938.62,1720h-37.65c-.77,0-1.25-.84-.85-1.5l4.81-8.02c.18-.3,.5-.48,.85-.48h28.83c.38,0,.72,.21,.89,.55l4.01,8.02c.33,.66-.15,1.43-.89,1.43Z"/>
    <path class="cls-1" d="M1988.49,1720h-37.64c-.77,0-1.25-.84-.85-1.5l4.81-8.01c.18-.3,.5-.48,.85-.48h28.82c.38,0,.72,.21,.89,.55l4.01,8.01c.33,.66-.15,1.44-.89,1.44Z"/>
  </g>
</svg>